<svg id="Layer_1" data-name="Layer 1" xmlns="http://www.w3.org/2000/svg" viewBox="0 0 835.53 986.4"><defs><style>.cls-1{fill:#f6f6f6;}</style></defs><rect class="cls-1" x="379.32" width="376.34" height="133.22" rx="14.28"/><path class="cls-1" d="M807.62,230.39a54.33,54.33,0,0,0-52.47-40.07H568.28a54.32,54.32,0,0,0-52.46,40.07c-12.94,47.71-41,130.34-94.4,205a147.52,147.52,0,0,0-9.64,156.89c53.36,97.15,137.52,255.89,190.6,383.39,6.66,16,30.49,11.1,30.35-6.22l-2.6-339.39a52.6,52.6,0,1,1,63.21-3l-2.63,342.37c-.14,17.32,23.69,22.21,30.35,6.22,53.08-127.5,137.24-286.24,190.6-383.39A147.52,147.52,0,0,0,902,435.43C848.64,360.73,820.56,278.1,807.62,230.39Z" transform="translate(-94.24 -18.8)"/><path class="cls-1" d="M482.52,842.72c-8.19-17.37-16.65-34.88-25.24-52.32-7.21-14.64-28.24-13.67-34.31,1.49-.05.14-.1.27-.16.41q-4.05,10-8.62,19.38a18.76,18.76,0,0,1-31,4l-30.43-35a18.78,18.78,0,0,1,3.3-27.59q31.43-22.54,46.63-47.17c.3-.5.61-1,.9-1.49a18.73,18.73,0,0,0,.5-18.37c-31.45-59.91-60.22-112-78.32-144.29a18.92,18.92,0,0,0-14.07-9.45,128,128,0,0,0-16.45-1.07q-38.89,0-69.87,14.17t-49.1,39.22q-18.13,25.07-18.13,58.66,0,22.42,9.56,47.46a180.34,180.34,0,0,0,17.86,34.28,18.77,18.77,0,0,1-7.07,27Q138.94,772.57,119,800.54q-24.72,34.61-24.71,70.19,0,34.29,20.1,65.26t56.35,50.09q36.26,19.11,83.05,19.12,31,0,65.92-10.22,28.79-8.41,59.38-25.57a18.74,18.74,0,0,1,23.33,4.05l14.5,16.71A18.78,18.78,0,0,0,431,996.63h66.52a18.76,18.76,0,0,0,14.21-31L465.71,912.2a18.77,18.77,0,0,1-1.33-22.74,316.38,316.38,0,0,0,17.76-30A18.78,18.78,0,0,0,482.52,842.72ZM300.21,917.2q-18.13,5.61-33.28,5.61-29.67,0-48.78-16.81T199,866.78q0-17.13,12.85-33.62,9.65-12.35,28.37-21.75a18.78,18.78,0,0,1,22.54,4.42l58.26,66.59a18.72,18.72,0,0,1-6.55,29.52A145,145,0,0,1,300.21,917.2Zm26.7-237.94Q318.75,691,303.26,701.2A18.7,18.7,0,0,1,280,698.87q-14.12-13.8-21-26.54-9.24-17.13-9.23-29.66,0-17.13,12.19-26.69t29.34-9.56q20.42,0,33.61,12.2a39.24,39.24,0,0,1,13.18,30Q338.11,663.12,326.91,679.26Z" transform="translate(-94.24 -18.8)"/></svg>