<svg id="Layer_1" data-name="Layer 1" xmlns="http://www.w3.org/2000/svg" viewBox="0 0 937.32 97.7"><defs><style>.cls-1{fill:#f6f6f6;}</style></defs><rect class="cls-1" x="32.11" width="31.86" height="11.28" rx="5.64"/><path class="cls-1" d="M105.61,476.48a4.58,4.58,0,0,0-4.44-3.39H85.35a4.58,4.58,0,0,0-4.44,3.39,56,56,0,0,1-8,17.36,12.49,12.49,0,0,0-.82,13.28c4.52,8.22,11.64,21.66,16.14,32.45a1.34,1.34,0,0,0,2.57-.52l-.22-28.73a4.46,4.46,0,1,1,5.35-.26l-.23,29a1.34,1.34,0,0,0,2.57.52c4.5-10.79,11.62-24.23,16.14-32.45a12.47,12.47,0,0,0-.82-13.28A56,56,0,0,1,105.61,476.48Z" transform="translate(-45.22 -458.57)"/><path class="cls-1" d="M78.09,528.32c-.69-1.47-1.41-3-2.14-4.43a1.59,1.59,0,0,0-2.9.12v0c-.23.56-.48,1.11-.73,1.64a1.6,1.6,0,0,1-2.63.34l-2.57-3a1.59,1.59,0,0,1,.28-2.34,14.24,14.24,0,0,0,3.94-4l.08-.13a1.56,1.56,0,0,0,0-1.55c-2.66-5.08-5.1-9.49-6.63-12.22a1.62,1.62,0,0,0-1.19-.8,10.7,10.7,0,0,0-1.39-.09,14.07,14.07,0,0,0-5.92,1.2,10.27,10.27,0,0,0-4.15,3.32,8.2,8.2,0,0,0-1.54,5,11.24,11.24,0,0,0,.81,4A15.3,15.3,0,0,0,53,518.36a1.59,1.59,0,0,1-.6,2.29,13.91,13.91,0,0,0-5,4.09,10.21,10.21,0,0,0-2.09,6,10,10,0,0,0,1.7,5.52,12.55,12.55,0,0,0,4.77,4.24,14.85,14.85,0,0,0,7,1.62,20.12,20.12,0,0,0,5.58-.86,24.42,24.42,0,0,0,5-2.17,1.6,1.6,0,0,1,2,.34l1.22,1.42a1.58,1.58,0,0,0,1.2.55h5.63a1.6,1.6,0,0,0,1.21-2.63l-3.9-4.52a1.59,1.59,0,0,1-.12-1.93,25.83,25.83,0,0,0,1.51-2.54A1.59,1.59,0,0,0,78.09,528.32Zm-15.43,6.3a9.58,9.58,0,0,1-2.82.48,6,6,0,0,1-4.13-1.43,4.3,4.3,0,0,1-1.62-3.32,4.57,4.57,0,0,1,1.09-2.84,6.8,6.8,0,0,1,2.4-1.84,1.59,1.59,0,0,1,1.91.37l4.93,5.64a1.59,1.59,0,0,1-.55,2.5A12.69,12.69,0,0,1,62.66,534.62Zm2.26-20.14a7.3,7.3,0,0,1-2,1.86,1.59,1.59,0,0,1-2-.2,9.85,9.85,0,0,1-1.77-2.25,5.5,5.5,0,0,1-.78-2.51,2.7,2.7,0,0,1,1-2.26,3.91,3.91,0,0,1,2.48-.81,4.07,4.07,0,0,1,2.85,1,3.35,3.35,0,0,1,1.12,2.54A4.63,4.63,0,0,1,64.92,514.48Z" transform="translate(-45.22 -458.57)"/><path class="cls-1" d="M141.85,540.4V474.55h25.34a60.58,60.58,0,0,1,15.33,1.77,20.15,20.15,0,0,1,10.65,6.41q3.89,4.63,3.89,13.31t-3.89,13.26a20,20,0,0,1-10.65,6.45,60.11,60.11,0,0,1-15.33,1.78h-9.76V540.4Zm15.58-35.79h10.25a28.53,28.53,0,0,0,6.56-.69,8.88,8.88,0,0,0,4.63-2.56A7.57,7.57,0,0,0,180.6,496a7.41,7.41,0,0,0-1.73-5.28,8.83,8.83,0,0,0-4.63-2.46,30.46,30.46,0,0,0-6.56-.64H157.43Z" transform="translate(-45.22 -458.57)"/><path class="cls-1" d="M215.69,541.58a20.06,20.06,0,0,1-8.48-1.77,15.13,15.13,0,0,1-6.11-5,12.9,12.9,0,0,1-2.27-7.64,11.92,11.92,0,0,1,4.19-9.57,27.85,27.85,0,0,1,11.49-5.32,103.45,103.45,0,0,1,16.76-2.46c0-3.49-.56-5.95-1.68-7.4s-3.29-2.16-6.51-2.16a10,10,0,0,0-5.37,1.42,7.06,7.06,0,0,0-3.1,4.39L202,501.56a19.49,19.49,0,0,1,8.23-8.19,28.5,28.5,0,0,1,14.15-3.25q10.44,0,16.06,4.63t5.62,15.78v10.74c0,2.11.07,4.37.2,6.81s.33,4.73.59,6.9a54.17,54.17,0,0,0,.89,5.42h-13.9l-1.78-5.92a15.1,15.1,0,0,1-7,5.47A25.7,25.7,0,0,1,215.69,541.58Zm5.52-10.25A11.43,11.43,0,0,0,228.6,529q3-2.37,3-9.07v-1.18A64.7,64.7,0,0,0,219,520.83q-4.72,1.42-4.73,5.27a4.48,4.48,0,0,0,2,3.8A8.22,8.22,0,0,0,221.21,531.33Z" transform="translate(-45.22 -458.57)"/><path class="cls-1" d="M277,541.58a32.64,32.64,0,0,1-14.84-3.15,19.4,19.4,0,0,1-9.12-9.27l12.72-4.63a8,8,0,0,0,4.19,4.58,16.44,16.44,0,0,0,7.34,1.53,17.08,17.08,0,0,0,6.46-1.14q2.81-1.12,2.81-3.4a3.15,3.15,0,0,0-1.68-2.66,16.75,16.75,0,0,0-5.91-1.77l-8.78-1.48a24,24,0,0,1-11.53-4.83,12,12,0,0,1-4.44-9.76,12.35,12.35,0,0,1,3.11-8.58,18.9,18.9,0,0,1,8.23-5.17,34.73,34.73,0,0,1,11.14-1.73,32.91,32.91,0,0,1,13,2.52A16.35,16.35,0,0,1,298.4,501l-12.62,4.63a4.93,4.93,0,0,0-3.25-3.6,17.3,17.3,0,0,0-5.92-.94q-8.08,0-8.08,3.95a2.81,2.81,0,0,0,1.38,2.41,12.53,12.53,0,0,0,4.63,1.53l9.07,1.68q8.88,1.58,13.11,4.63t4.24,9.17a14.28,14.28,0,0,1-3.25,9.56,19.37,19.37,0,0,1-8.68,5.72A36.57,36.57,0,0,1,277,541.58Z" transform="translate(-45.22 -458.57)"/><path class="cls-1" d="M329.16,540.4a35.43,35.43,0,0,1-9.57-1,7.82,7.82,0,0,1-5.07-4q-1.53-3-1.53-8.72V502.94H304.9V491.5H313V479.28h15V491.5h10.65v11.44H328v19.71c0,2.3.45,3.8,1.33,4.49s2.55,1,5,1h4.34V540.4Z" transform="translate(-45.22 -458.57)"/><path class="cls-1" d="M376.87,540.4V474.55H402.2a60.58,60.58,0,0,1,15.33,1.77,20.15,20.15,0,0,1,10.65,6.41q3.88,4.63,3.89,13.31t-3.89,13.26a20,20,0,0,1-10.65,6.45,60.11,60.11,0,0,1-15.33,1.78h-9.76V540.4Zm15.57-35.79H402.7a28.44,28.44,0,0,0,6.55-.69,8.88,8.88,0,0,0,4.63-2.56,7.57,7.57,0,0,0,1.73-5.32,7.41,7.41,0,0,0-1.73-5.28,8.83,8.83,0,0,0-4.63-2.46,30.37,30.37,0,0,0-6.55-.64H392.44Z" transform="translate(-45.22 -458.57)"/><path class="cls-1" d="M450.7,541.58a20,20,0,0,1-8.47-1.77,15.1,15.1,0,0,1-6.12-5,12.89,12.89,0,0,1-2.26-7.64,11.89,11.89,0,0,1,4.19-9.57,27.8,27.8,0,0,1,11.48-5.32,103.45,103.45,0,0,1,16.76-2.46c0-3.49-.56-5.95-1.68-7.4s-3.28-2.16-6.5-2.16a10.08,10.08,0,0,0-5.38,1.42,7.06,7.06,0,0,0-3.1,4.39L437,501.56a19.55,19.55,0,0,1,8.23-8.19,28.53,28.53,0,0,1,14.15-3.25q10.44,0,16.07,4.63t5.62,15.78v10.74c0,2.11.06,4.37.19,6.81s.33,4.73.59,6.9.56,4,.89,5.42h-13.9l-1.77-5.92a15.16,15.16,0,0,1-6.95,5.47A25.75,25.75,0,0,1,450.7,541.58Zm5.52-10.25a11.46,11.46,0,0,0,7.4-2.37q3-2.37,2.95-9.07v-1.18a64.7,64.7,0,0,0-12.52,2.12q-4.73,1.42-4.73,5.27a4.48,4.48,0,0,0,2,3.8A8.22,8.22,0,0,0,456.22,531.33Z" transform="translate(-45.22 -458.57)"/><path class="cls-1" d="M490.92,556.27V491.5h13l2,6.71a14.83,14.83,0,0,1,6.65-6.07,19.39,19.39,0,0,1,8.23-2A20.09,20.09,0,0,1,532,493.28a21.14,21.14,0,0,1,7.64,8.92,35.63,35.63,0,0,1,0,27.5,20,20,0,0,1-18.83,11.88,18.92,18.92,0,0,1-8.23-2.07,15.14,15.14,0,0,1-6.65-6.11v22.87ZM516.06,530a9.87,9.87,0,0,0,7.54-3.55q3.21-3.55,3.21-10.45,0-6.71-3.21-10.45a9.64,9.64,0,0,0-7.54-3.75,10.53,10.53,0,0,0-7.64,3.16q-3.21,3.15-3.2,10.74t3.2,10.9A10.17,10.17,0,0,0,516.06,530Z" transform="translate(-45.22 -458.57)"/><path class="cls-1" d="M573.93,541.58a30.3,30.3,0,0,1-13.95-3.1,22.79,22.79,0,0,1-9.47-8.93,27.12,27.12,0,0,1-3.4-13.9,24.34,24.34,0,0,1,13.16-22.37,27.45,27.45,0,0,1,13.07-3.16,24.66,24.66,0,0,1,13.85,3.8,23.71,23.71,0,0,1,8.72,10.45,32.84,32.84,0,0,1,2.47,15.33H562.2c.26,3.41,1.52,6,3.79,7.68a12.24,12.24,0,0,0,7.54,2.57,15.66,15.66,0,0,0,6-1,10.29,10.29,0,0,0,3.89-2.61l11.93,4.34a23.54,23.54,0,0,1-9.61,8.28A27.92,27.92,0,0,1,573.93,541.58ZM562.2,510.82h22.28a8.68,8.68,0,0,0-3.26-7.14,12,12,0,0,0-7.49-2.42,13,13,0,0,0-7.54,2.27Q562.89,505.8,562.2,510.82Z" transform="translate(-45.22 -458.57)"/><path class="cls-1" d="M605.47,540.4V491.5H617.3l2.66,9q2.28-5.91,6.21-8.28a16.49,16.49,0,0,1,9.57-2.07v15a16.92,16.92,0,0,0-2.07-.25c-.59,0-1.25-.05-2-.05-3.62,0-6.4.86-8.33,2.56s-2.91,4.51-2.91,8.38V540.4Z" transform="translate(-45.22 -458.57)"/><path class="cls-1" d="M692,540.4l-22.27-65.85h16.16L701,523l15.18-48.4h16.26L710.07,540.4Z" transform="translate(-45.22 -458.57)"/><path class="cls-1" d="M745.06,540.4V502.94h-9.27V491.5h24.35v48.9Zm7.59-57a8.92,8.92,0,1,1,8.87-8.87,8.63,8.63,0,0,1-2.56,6.26A8.5,8.5,0,0,1,752.65,483.42Z" transform="translate(-45.22 -458.57)"/><path class="cls-1" d="M793.66,541.58a30.3,30.3,0,0,1-13.95-3.1,22.7,22.7,0,0,1-9.46-8.93,27,27,0,0,1-3.4-13.9A24.3,24.3,0,0,1,780,493.28a27.41,27.41,0,0,1,13.06-3.16,24.64,24.64,0,0,1,13.85,3.8,23.71,23.71,0,0,1,8.72,10.45,32.71,32.71,0,0,1,2.47,15.33H781.93c.26,3.41,1.53,6,3.79,7.68a12.24,12.24,0,0,0,7.54,2.57,15.66,15.66,0,0,0,6-1,10.21,10.21,0,0,0,3.89-2.61l11.93,4.34a23.54,23.54,0,0,1-9.61,8.28A27.92,27.92,0,0,1,793.66,541.58Zm-11.73-30.76h22.28a8.68,8.68,0,0,0-3.26-7.14,12,12,0,0,0-7.49-2.42,13,13,0,0,0-7.54,2.27Q782.62,505.8,781.93,510.82Z" transform="translate(-45.22 -458.57)"/><path class="cls-1" d="M832.5,540.4l-12.22-48.9h14.78l7.4,33.12,6.3-33.12H863l6.31,33.12,7.39-33.12h14.89l-12.22,48.9H863l-7.1-35.1-7,35.1Z" transform="translate(-45.22 -458.57)"/><path class="cls-1" d="M920.73,541.58a30.3,30.3,0,0,1-14-3.1,22.79,22.79,0,0,1-9.47-8.93,27.12,27.12,0,0,1-3.4-13.9,24.34,24.34,0,0,1,13.16-22.37,27.45,27.45,0,0,1,13.07-3.16,24.66,24.66,0,0,1,13.85,3.8,23.71,23.71,0,0,1,8.72,10.45,32.84,32.84,0,0,1,2.47,15.33H909c.26,3.41,1.52,6,3.79,7.68a12.24,12.24,0,0,0,7.54,2.57,15.66,15.66,0,0,0,6-1,10.29,10.29,0,0,0,3.89-2.61l11.93,4.34a23.54,23.54,0,0,1-9.61,8.28A27.92,27.92,0,0,1,920.73,541.58ZM909,510.82h22.28a8.7,8.7,0,0,0-3.26-7.14,12,12,0,0,0-7.49-2.42,13,13,0,0,0-7.54,2.27Q909.69,505.8,909,510.82Z" transform="translate(-45.22 -458.57)"/><path class="cls-1" d="M952.27,540.4V491.5H964.1l2.66,9q2.28-5.91,6.21-8.28a16.49,16.49,0,0,1,9.57-2.07v15a16.92,16.92,0,0,0-2.07-.25c-.59,0-1.25-.05-2-.05-3.62,0-6.4.86-8.33,2.56s-2.91,4.51-2.91,8.38V540.4Z" transform="translate(-45.22 -458.57)"/></svg>